<svg xmlns="http://www.w3.org/2000/svg" version="1.1" xmlns:xlink="http://www.w3.org/1999/xlink" xmlns:svgjs="http://svgjs.dev/svgjs" width="1000" height="318" viewBox="0 0 1000 318"><g transform="matrix(1,0,0,1,-0.6060480660491976,0.25037396337862106)"><svg viewBox="0 0 396 126" data-background-color="#fbb975" preserveAspectRatio="xMidYMid meet" height="318" width="1000" xmlns="http://www.w3.org/2000/svg" xmlns:xlink="http://www.w3.org/1999/xlink"><g id="tight-bounds" transform="matrix(1,0,0,1,0.23999509881491576,-0.09920477794247518)"><svg viewBox="0 0 395.52 126.19840748692494" height="126.19840748692494" width="395.52"><g><svg viewBox="0 0 395.52000000000004 126.19840748692495" height="126.19840748692494" width="395.52"><g transform="matrix(1,0,0,1,0,77.9956786559342)"><svg viewBox="0 0 395.52000000000004 48.20272883099075" height="48.20272883099075" width="395.52000000000004"><g id="textblocktransform"><svg viewBox="0 0 395.52000000000004 48.20272883099075" height="48.20272883099075" width="395.52000000000004" id="textblock"><g><svg viewBox="0 0 395.52000000000004 48.20272883099075" height="48.20272883099075" width="395.52000000000004"><g transform="matrix(1,0,0,1,0,0)"><svg width="395.52000000000004" viewBox="0.9500000476837158 -35.20000076293945 291.67999267578125 35.54999923706055" height="48.20272883099075" data-palette-color="#374151"><path d="M27.7-34.75L33.7-34.75 20.65 0 14.05 0 0.95-34.75 7.05-34.75 17.35-5.85 27.7-34.75ZM68.95-34.75L75.05-34.75 75.05 0 69.35 0 69.35-23.8 58.75 0 54.8 0 44.15-23.8 44.15 0 38.45 0 38.45-34.75 44.6-34.75 56.8-7.5 68.95-34.75ZM83.15-20.5L103.7-20.5 103.7-15.7 83.15-15.7 83.15-20.5ZM142.29-34.75L148.39-34.75 148.39 0 142.69 0 142.69-23.8 132.09 0 128.14 0 117.49-23.8 117.49 0 111.79 0 111.79-34.75 117.94-34.75 130.14-7.5 142.29-34.75ZM171.74 0.35Q166.89 0.35 162.82-1.93 158.74-4.2 156.37-8.28 153.99-12.35 153.99-17.45L153.99-17.45Q153.99-22.55 156.37-26.6 158.74-30.65 162.82-32.93 166.89-35.2 171.74-35.2L171.74-35.2Q176.64-35.2 180.72-32.93 184.79-30.65 187.14-26.6 189.49-22.55 189.49-17.45L189.49-17.45Q189.49-12.35 187.14-8.28 184.79-4.2 180.72-1.93 176.64 0.35 171.74 0.35L171.74 0.35ZM171.74-4.6Q175.19-4.6 177.89-6.18 180.59-7.75 182.12-10.68 183.64-13.6 183.64-17.45L183.64-17.45Q183.64-21.3 182.12-24.2 180.59-27.1 177.89-28.65 175.19-30.2 171.74-30.2L171.74-30.2Q168.29-30.2 165.59-28.65 162.89-27.1 161.37-24.2 159.84-21.3 159.84-17.45L159.84-17.45Q159.84-13.6 161.37-10.68 162.89-7.75 165.59-6.18 168.29-4.6 171.74-4.6L171.74-4.6ZM219.04-34.75L225.04-34.75 211.99 0 205.39 0 192.29-34.75 198.39-34.75 208.69-5.85 219.04-34.75ZM229.79-34.75L235.49-34.75 235.49 0 229.79 0 229.79-34.75ZM262.18-30.15L248.68-30.15 248.68-19.95 260.68-19.95 260.68-15.3 248.68-15.3 248.68-4.65 262.18-4.65 262.18 0 242.98 0 242.98-34.8 262.18-34.8 262.18-30.15ZM280.63 0.35Q277.13 0.35 274.33-0.88 271.53-2.1 269.93-4.35 268.33-6.6 268.33-9.6L268.33-9.6 274.43-9.6Q274.63-7.35 276.2-5.9 277.78-4.45 280.63-4.45L280.63-4.45Q283.58-4.45 285.23-5.88 286.88-7.3 286.88-9.55L286.88-9.55Q286.88-11.3 285.86-12.4 284.83-13.5 283.31-14.1 281.78-14.7 279.08-15.4L279.08-15.4Q275.68-16.3 273.56-17.23 271.43-18.15 269.93-20.1 268.43-22.05 268.43-25.3L268.43-25.3Q268.43-28.3 269.93-30.55 271.43-32.8 274.13-34 276.83-35.2 280.38-35.2L280.38-35.2Q285.43-35.2 288.66-32.68 291.88-30.15 292.23-25.75L292.23-25.75 285.93-25.75Q285.78-27.65 284.13-29 282.48-30.35 279.78-30.35L279.78-30.35Q277.33-30.35 275.78-29.1 274.23-27.85 274.23-25.5L274.23-25.5Q274.23-23.9 275.2-22.88 276.18-21.85 277.68-21.25 279.18-20.65 281.78-19.95L281.78-19.95Q285.23-19 287.41-18.05 289.58-17.1 291.11-15.13 292.63-13.15 292.63-9.85L292.63-9.85Q292.63-7.2 291.2-4.85 289.78-2.5 287.06-1.07 284.33 0.35 280.63 0.35L280.63 0.35Z" opacity="1" transform="matrix(1,0,0,1,0,0)" fill="#ffffff" class="wordmark-text-0" data-fill-palette-color="primary" id="text-0"></path></svg></g></svg></g></svg></g></svg></g><g transform="matrix(1,0,0,1,161.47744002382544,0)"><svg viewBox="0 0 72.56511995234915 66.61617124442922" height="66.61617124442922" width="72.56511995234915"><g><svg xmlns="http://www.w3.org/2000/svg" xmlns:xlink="http://www.w3.org/1999/xlink" version="1.1" x="8" y="0" viewBox="0 0 84.91199493408203 100" enable-background="new 0 0 84.911 100" xml:space="preserve" width="56.56511995234915" height="66.61617124442922" class="icon-icon-0" data-fill-palette-color="accent" id="icon-0"><g fill="#374151" data-fill-palette-color="accent"><path fill="#ffffff" d="M22.86 73.874c-3 0-5.442 2.441-5.442 5.442 0 3.003 2.442 5.444 5.442 5.444 3.001 0 5.443-2.441 5.443-5.444C28.303 76.315 25.861 73.874 22.86 73.874zM22.86 80.406c-0.6 0-1.088-0.489-1.088-1.09 0-0.599 0.488-1.088 1.088-1.088 0.601 0 1.089 0.489 1.089 1.088C23.949 79.917 23.461 80.406 22.86 80.406z" data-fill-palette-color="accent"></path><path fill="#ffffff" d="M56.606 79.316c0 3.003 2.443 5.444 5.444 5.444s5.444-2.441 5.444-5.444c0-3.001-2.443-5.442-5.444-5.442S56.606 76.315 56.606 79.316zM62.051 78.228c0.599 0 1.088 0.489 1.088 1.088 0 0.601-0.489 1.09-1.088 1.09-0.602 0-1.088-0.489-1.088-1.09C60.963 78.717 61.449 78.228 62.051 78.228z" data-fill-palette-color="accent"></path><path fill="#ffffff" d="M71.021 36.336V11.112c0-2.406-1.95-4.356-4.354-4.356H17.793c-2.405 0-4.354 1.95-4.354 4.356v25.224c0 2.404 1.949 4.354 4.354 4.354h48.875C69.071 40.69 71.021 38.74 71.021 36.336zM17.793 11.112h48.875v25.224H17.793V11.112z" data-fill-palette-color="accent"></path><path fill="#ffffff" d="M41.548 14.181c-5.412 0-9.797 4.387-9.797 9.798 0 5.412 4.385 9.798 9.797 9.798 5.411 0 9.798-4.387 9.798-9.798C51.346 18.567 46.959 14.181 41.548 14.181zM47.1 25.165l-2.114 1.223c-1.039 0.601-2.734 1.579-3.773 2.178l-2.115 1.221c-1.037 0.599-1.887 0.108-1.887-1.088v-2.443c0-1.198 0-3.158 0-4.354v-2.445c0-1.196 0.85-1.687 1.887-1.088l2.115 1.22c1.039 0.599 2.734 1.577 3.773 2.178l2.114 1.223C48.139 23.587 48.139 24.565 47.1 25.165z" data-fill-palette-color="accent"></path><path fill="#ffffff" d="M82.735 62.988h-19.67v-5.105c0-2.404-1.952-4.354-4.356-4.354h-4.348c0.037-0.22 0.069-5.78 0.069-5.78h18.854c3.378 0 6.129-2.749 6.129-6.131V6.131C79.414 2.749 76.663 0 73.285 0H11.177c-3.38 0-6.129 2.749-6.129 6.131v35.486c0 3.382 2.749 6.131 6.129 6.131h17.201c0 0 0.034 5.561 0.068 5.78h-4.497c-2.404 0-4.354 1.95-4.354 4.354v5.105H2.177C0.975 62.988 0 63.961 0 65.166v32.656C0 99.026 0.975 100 2.177 100h8.709 4.355l-0.001-6.532h54.431V100h4.354 8.711c1.201 0 2.176-0.975 2.176-2.179V65.166C84.911 63.961 83.937 62.988 82.735 62.988zM11.177 43.394c-0.976 0-1.775-0.801-1.775-1.777V6.131c0-0.976 0.799-1.777 1.775-1.777h62.108c0.974 0 1.772 0.801 1.772 1.777v35.486c0 0.976-0.799 1.777-1.772 1.777H50.074 32.733 11.177zM50.074 47.748v5.104H32.733v-5.104H50.074zM23.949 57.882h34.76v5.105h-34.76V57.882zM80.557 95.646h-6.532v-6.532H10.886v6.532H4.354V67.341h19.595 34.76 21.848V95.646z" data-fill-palette-color="accent"></path></g></svg></g></svg></g><g><rect width="161.4774400238254" height="4.3469718311948995" y="61.269199413234325" x="234.04255997617457" fill="#ffffff" data-fill-palette-color="accent"></rect><rect width="161.4774400238254" height="4.3469718311948995" y="61.269199413234325" x="2.842170943040401e-14" fill="#ffffff" data-fill-palette-color="accent"></rect><rect width="161.4774400238254" height="4.3469718311948995" y="52.575255750844526" x="234.04255997617457" fill="#ffffff" data-fill-palette-color="accent"></rect><rect width="161.4774400238254" height="4.3469718311948995" y="52.575255750844526" x="2.842170943040401e-14" fill="#ffffff" data-fill-palette-color="accent"></rect></g></svg></g><defs></defs></svg><rect width="395.52" height="126.19840748692494" fill="none" stroke="none" visibility="hidden"></rect></g></svg></g></svg>